<svg xmlns="http://www.w3.org/2000/svg" xmlns:xlink="http://www.w3.org/1999/xlink" width="100" zoomAndPan="magnify" viewBox="0 0 75 37.5" height="50" preserveAspectRatio="xMidYMid meet" version="1.0"><defs><g/><clipPath id="a4ed9c1ca9"><path d="M 4.195312 8.453125 L 70.804688 8.453125 L 70.804688 19.554688 L 4.195312 19.554688 Z M 4.195312 8.453125 " clip-rule="nonzero"/></clipPath><clipPath id="fccbbb1904"><path d="M 0.046875 1 L 6 1 L 6 6 L 0.046875 6 Z M 0.046875 1 " clip-rule="nonzero"/></clipPath><clipPath id="9091da3c04"><rect x="0" width="50" y="0" height="8"/></clipPath><clipPath id="2e57bf4e01"><path d="M 0.230469 0.289062 L 2 0.289062 L 2 2.894531 L 0.230469 2.894531 Z M 0.230469 0.289062 " clip-rule="nonzero"/></clipPath><clipPath id="4c11118836"><path d="M 2 0.289062 L 4 0.289062 L 4 2.894531 L 2 2.894531 Z M 2 0.289062 " clip-rule="nonzero"/></clipPath><clipPath id="c98c29bd3d"><path d="M 4 0.289062 L 6 0.289062 L 6 2.894531 L 4 2.894531 Z M 4 0.289062 " clip-rule="nonzero"/></clipPath><clipPath id="59306f7634"><path d="M 6 0.289062 L 8 0.289062 L 8 2.894531 L 6 2.894531 Z M 6 0.289062 " clip-rule="nonzero"/></clipPath><clipPath id="1dbf5f7ae5"><path d="M 8 0.289062 L 10 0.289062 L 10 2.894531 L 8 2.894531 Z M 8 0.289062 " clip-rule="nonzero"/></clipPath><clipPath id="46199b7c63"><path d="M 11 0.289062 L 13 0.289062 L 13 2.894531 L 11 2.894531 Z M 11 0.289062 " clip-rule="nonzero"/></clipPath><clipPath id="3e15be7b4f"><path d="M 13 0.289062 L 15 0.289062 L 15 2.894531 L 13 2.894531 Z M 13 0.289062 " clip-rule="nonzero"/></clipPath><clipPath id="3fb75964d6"><path d="M 15 2 L 16 2 L 16 2.894531 L 15 2.894531 Z M 15 2 " clip-rule="nonzero"/></clipPath><clipPath id="dd4fe46e14"><path d="M 16 0.289062 L 18 0.289062 L 18 2.894531 L 16 2.894531 Z M 16 0.289062 " clip-rule="nonzero"/></clipPath><clipPath id="87d3321fb2"><path d="M 18 2 L 19 2 L 19 2.894531 L 18 2.894531 Z M 18 2 " clip-rule="nonzero"/></clipPath><clipPath id="2992350993"><path d="M 20 0.289062 L 22 0.289062 L 22 2.894531 L 20 2.894531 Z M 20 0.289062 " clip-rule="nonzero"/></clipPath><clipPath id="6f9557b068"><path d="M 22 0.289062 L 23 0.289062 L 23 2.894531 L 22 2.894531 Z M 22 0.289062 " clip-rule="nonzero"/></clipPath><clipPath id="d413d4da53"><path d="M 23 0.289062 L 25 0.289062 L 25 2.894531 L 23 2.894531 Z M 23 0.289062 " clip-rule="nonzero"/></clipPath><clipPath id="cf32ef1b20"><path d="M 25 0.289062 L 27 0.289062 L 27 2.894531 L 25 2.894531 Z M 25 0.289062 " clip-rule="nonzero"/></clipPath><clipPath id="e7f4e82ebb"><path d="M 27 0.289062 L 29 0.289062 L 29 2.894531 L 27 2.894531 Z M 27 0.289062 " clip-rule="nonzero"/></clipPath><clipPath id="14f1811edf"><rect x="0" width="30" y="0" height="3"/></clipPath></defs><g clip-path="url(#a4ed9c1ca9)"><path fill="#e5e7e9" d="M 70.792969 19.503906 C 70.519531 20.128906 64.1875 19.339844 63.347656 19.242188 C 62.898438 19.191406 62.519531 19.144531 62.285156 19.121094 L 62.1875 19.113281 L 62.144531 19.027344 C 61.710938 18.179688 61.089844 17.402344 60.203125 16.867188 C 59.3125 16.332031 58.152344 16.039062 56.640625 16.164062 C 55.652344 16.242188 54.84375 16.5 54.175781 16.878906 C 53.511719 17.257812 52.984375 17.753906 52.574219 18.3125 L 52.515625 18.386719 L 52.421875 18.382812 C 49.949219 18.25 47.371094 18.148438 44.707031 18.082031 C 42.121094 18.015625 39.433594 17.980469 36.671875 17.980469 C 35.738281 17.980469 34.867188 17.984375 34.058594 17.992188 C 33.15625 18 32.257812 18.011719 31.355469 18.027344 L 31.304688 17.945312 C 30.917969 17.375 30.613281 16.84375 30.476562 16.4375 C 30.410156 16.242188 30.382812 16.070312 30.402344 15.929688 C 30.425781 15.75 30.519531 15.621094 30.691406 15.554688 C 30.773438 15.527344 30.867188 15.511719 30.980469 15.519531 C 38.90625 15.953125 41.8125 16.144531 41.8125 16.132812 C 41.816406 16.082031 37.613281 15.785156 32.875 15.332031 C 30.074219 15.066406 27.089844 14.78125 24.660156 14.527344 L 24.648438 14.523438 C 24.644531 14.523438 23.113281 14.246094 24.15625 15.894531 C 24.332031 16.175781 24.542969 16.492188 24.78125 16.832031 C 25.023438 17.167969 25.296875 17.523438 25.605469 17.886719 L 25.84375 18.167969 L 25.476562 18.179688 C 24.480469 18.214844 23.496094 18.257812 22.523438 18.304688 C 21.554688 18.347656 20.597656 18.398438 19.652344 18.453125 L 19.542969 18.460938 L 19.488281 18.363281 C 19.125 17.714844 18.613281 17.128906 17.902344 16.691406 C 17.183594 16.25 16.257812 15.953125 15.074219 15.894531 C 13.316406 15.804688 12.046875 16.203125 11.125 16.84375 C 10.203125 17.480469 9.628906 18.359375 9.269531 19.21875 L 9.230469 19.316406 L 9.125 19.328125 C 8.429688 19.40625 7.765625 19.488281 7.140625 19.566406 C 6.511719 19.648438 5.890625 19.734375 5.273438 19.824219 L 5.148438 19.839844 L 5.089844 19.730469 C 4.734375 19.039062 4.394531 18.230469 4.257812 17.535156 C 4.1875 17.183594 4.171875 16.855469 4.230469 16.582031 C 4.292969 16.28125 4.449219 16.042969 4.714844 15.90625 C 4.800781 15.859375 4.898438 15.828125 5.007812 15.804688 C 6.539062 15.503906 6.898438 14.910156 6.773438 14.273438 C 6.644531 13.605469 6.027344 12.863281 5.585938 12.332031 C 5.320312 12.015625 5.109375 11.765625 5.074219 11.597656 L 5.019531 11.355469 L 5.265625 11.382812 C 7.820312 11.675781 10.074219 11.765625 12.117188 11.71875 C 14.15625 11.671875 15.984375 11.488281 17.675781 11.226562 L 17.703125 11.222656 L 17.738281 11.230469 C 23.925781 12.484375 38.589844 13.617188 46.421875 13.984375 C 47.996094 14.058594 49.292969 14.101562 50.1875 14.109375 C 51.050781 14.117188 51.308594 14.167969 50.609375 13.804688 C 50.492188 13.742188 50.363281 13.664062 50.214844 13.582031 C 46.875 11.667969 43.382812 10.574219 39.785156 10.117188 C 35.8125 9.609375 31.71875 9.871094 27.578125 10.644531 C 27.726562 10.910156 28.136719 11.453125 29.199219 12.171875 L 29.855469 12.617188 L 29.074219 12.496094 C 28.183594 12.359375 27.285156 12.253906 26.351562 12.144531 C 24.460938 11.921875 22.429688 11.683594 20.089844 11.144531 L 19.292969 10.957031 L 20.097656 10.796875 C 21.367188 10.539062 22.597656 10.25 23.804688 9.960938 C 31.238281 8.203125 37.730469 6.664062 53.230469 13.558594 C 57.746094 13.3125 64.742188 16.039062 68.367188 17.824219 C 69.117188 18.195312 69.722656 18.523438 70.132812 18.78125 C 70.625 19.085938 70.863281 19.339844 70.792969 19.503906 Z M 69.945312 19.082031 C 69.542969 18.832031 68.949219 18.507812 68.210938 18.144531 C 64.609375 16.367188 57.652344 13.652344 53.207031 13.914062 L 53.164062 13.917969 L 53.125 13.898438 C 37.707031 7.035156 31.261719 8.5625 23.886719 10.308594 C 22.941406 10.53125 21.984375 10.757812 20.976562 10.976562 C 22.960938 11.390625 24.730469 11.597656 26.390625 11.789062 C 27.082031 11.871094 27.757812 11.949219 28.417969 12.039062 C 27.308594 11.160156 27.152344 10.5625 27.152344 10.558594 L 27.097656 10.375 L 27.289062 10.335938 C 31.539062 9.527344 35.746094 9.242188 39.832031 9.765625 C 43.921875 10.289062 47.882812 11.617188 51.636719 14.027344 C 51.679688 14.058594 51.710938 14.09375 51.726562 14.140625 C 51.804688 14.371094 51.242188 14.472656 50.183594 14.464844 C 49.277344 14.457031 47.976562 14.414062 46.40625 14.339844 C 38.574219 13.972656 23.925781 12.839844 17.699219 11.585938 C 16.007812 11.84375 14.175781 12.027344 12.125 12.074219 C 10.277344 12.117188 8.261719 12.046875 6.015625 11.820312 C 5.507812 11.769531 5.523438 11.707031 5.859375 12.109375 C 6.324219 12.667969 6.976562 13.453125 7.125 14.203125 C 7.285156 15.039062 6.875 15.800781 5.074219 16.15625 C 5 16.167969 4.933594 16.191406 4.878906 16.21875 C 4.714844 16.304688 4.621094 16.457031 4.578125 16.65625 C 4.527344 16.878906 4.546875 17.160156 4.605469 17.46875 C 4.726562 18.089844 5.027344 18.816406 5.347656 19.453125 C 5.902344 19.375 6.484375 19.296875 7.09375 19.214844 C 7.722656 19.136719 8.351562 19.058594 8.984375 18.988281 C 9.367188 18.105469 9.972656 17.210938 10.921875 16.554688 C 11.902344 15.871094 13.246094 15.445312 15.09375 15.539062 C 16.34375 15.605469 17.324219 15.917969 18.085938 16.386719 C 18.820312 16.839844 19.355469 17.433594 19.742188 18.09375 C 20.640625 18.039062 21.5625 17.992188 22.507812 17.949219 C 23.359375 17.910156 24.222656 17.871094 25.105469 17.839844 C 24.878906 17.5625 24.675781 17.292969 24.492188 17.035156 C 24.25 16.691406 24.035156 16.371094 23.855469 16.082031 C 22.40625 13.789062 24.628906 14.160156 24.707031 14.175781 C 27.160156 14.429688 30.128906 14.714844 32.910156 14.980469 C 37.828125 15.449219 42.484375 16.011719 42.167969 16.148438 C 41.933594 16.277344 39.144531 16.320312 30.964844 15.875 C 30.898438 15.871094 30.851562 15.875 30.816406 15.886719 C 30.777344 15.902344 30.757812 15.933594 30.753906 15.976562 C 30.742188 16.0625 30.761719 16.179688 30.8125 16.324219 C 30.921875 16.648438 31.15625 17.074219 31.460938 17.542969 C 31.574219 17.71875 31.574219 17.667969 31.796875 17.664062 C 32.542969 17.652344 33.296875 17.644531 34.054688 17.636719 C 34.976562 17.628906 35.851562 17.625 36.671875 17.625 C 39.402344 17.625 42.09375 17.660156 44.714844 17.726562 C 47.355469 17.796875 49.910156 17.894531 52.347656 18.023438 C 52.777344 17.460938 53.320312 16.957031 54 16.570312 C 54.710938 16.167969 55.570312 15.894531 56.613281 15.808594 C 58.207031 15.679688 59.4375 15.992188 60.386719 16.5625 C 61.304688 17.117188 61.953125 17.910156 62.414062 18.78125 C 62.679688 18.808594 63.003906 18.84375 63.386719 18.890625 C 63.84375 18.941406 71.554688 20.082031 69.945312 19.082031 Z M 69.945312 19.082031 " fill-opacity="1" fill-rule="nonzero"/></g><g transform="matrix(1, 0, 0, 1, 13, 19)"><g clip-path="url(#9091da3c04)"><g clip-path="url(#fccbbb1904)"><g fill="#f90000" fill-opacity="1"><g transform="translate(0.260783, 5.566655)"><g><path d="M 2.6875 0.0625 C 2.144531 0.0625 1.695312 -0.03125 1.34375 -0.21875 C 0.988281 -0.414062 0.742188 -0.6875 0.609375 -1.03125 C 0.472656 -1.375 0.453125 -1.769531 0.546875 -2.21875 C 0.609375 -2.539062 0.722656 -2.816406 0.890625 -3.046875 C 1.054688 -3.285156 1.257812 -3.484375 1.5 -3.640625 C 1.738281 -3.804688 2.007812 -3.925781 2.3125 -4 C 2.613281 -4.082031 2.9375 -4.125 3.28125 -4.125 C 3.632812 -4.125 3.953125 -4.078125 4.234375 -3.984375 C 4.515625 -3.898438 4.742188 -3.769531 4.921875 -3.59375 L 4.59375 -2.953125 C 4.394531 -3.109375 4.191406 -3.21875 3.984375 -3.28125 C 3.773438 -3.351562 3.53125 -3.390625 3.25 -3.390625 C 2.925781 -3.390625 2.640625 -3.34375 2.390625 -3.25 C 2.140625 -3.15625 1.929688 -3.015625 1.765625 -2.828125 C 1.597656 -2.640625 1.488281 -2.398438 1.4375 -2.109375 C 1.375 -1.804688 1.378906 -1.546875 1.453125 -1.328125 C 1.535156 -1.117188 1.6875 -0.957031 1.90625 -0.84375 C 2.132812 -0.726562 2.414062 -0.671875 2.75 -0.671875 C 3.03125 -0.671875 3.289062 -0.703125 3.53125 -0.765625 C 3.78125 -0.835938 4.023438 -0.957031 4.265625 -1.125 L 4.515625 -0.484375 C 4.359375 -0.359375 4.179688 -0.253906 3.984375 -0.171875 C 3.796875 -0.0976562 3.585938 -0.0390625 3.359375 0 C 3.140625 0.0390625 2.914062 0.0625 2.6875 0.0625 Z M 2.6875 0.0625 "/></g></g></g></g><g fill="#f90000" fill-opacity="1"><g transform="translate(5.205044, 5.566655)"><g><path d="M -0.15625 0 L 2.75 -4.0625 L 3.5 -4.0625 L 5.109375 0 L 4.265625 0 L 3.828125 -1.15625 L 4.171875 -0.875 L 1.09375 -0.875 L 1.5625 -1.15625 L 0.75 0 Z M 3.015625 -3.28125 L 1.671875 -1.328125 L 1.484375 -1.53125 L 3.984375 -1.53125 L 3.765625 -1.34375 L 3.046875 -3.28125 Z M 3.015625 -3.28125 "/></g></g></g><g fill="#f90000" fill-opacity="1"><g transform="translate(10.610307, 5.566655)"><g><path d="M 0.390625 0 L 1.03125 -4.0625 L 3.296875 -4.0625 C 3.660156 -4.0625 3.960938 -4.007812 4.203125 -3.90625 C 4.441406 -3.8125 4.609375 -3.664062 4.703125 -3.46875 C 4.804688 -3.28125 4.828125 -3.039062 4.765625 -2.75 C 4.710938 -2.507812 4.609375 -2.3125 4.453125 -2.15625 C 4.304688 -2 4.109375 -1.875 3.859375 -1.78125 C 3.617188 -1.695312 3.335938 -1.648438 3.015625 -1.640625 L 3.078125 -1.6875 L 3.296875 -1.6875 C 3.441406 -1.675781 3.570312 -1.640625 3.6875 -1.578125 C 3.800781 -1.515625 3.898438 -1.410156 3.984375 -1.265625 L 4.671875 0 L 3.671875 0 L 3.015625 -1.25 C 2.972656 -1.320312 2.925781 -1.378906 2.875 -1.421875 C 2.820312 -1.472656 2.75 -1.507812 2.65625 -1.53125 C 2.570312 -1.550781 2.460938 -1.5625 2.328125 -1.5625 L 1.5 -1.5625 L 1.25 0 Z M 1.578125 -2.171875 L 2.875 -2.171875 C 3.195312 -2.171875 3.441406 -2.222656 3.609375 -2.328125 C 3.773438 -2.429688 3.878906 -2.585938 3.921875 -2.796875 C 3.960938 -3.003906 3.914062 -3.15625 3.78125 -3.25 C 3.65625 -3.351562 3.429688 -3.40625 3.109375 -3.40625 L 1.78125 -3.40625 Z M 1.578125 -2.171875 "/></g></g></g><g fill="#f90000" fill-opacity="1"><g transform="translate(15.652528, 5.566655)"><g/></g></g><g fill="#f90000" fill-opacity="1"><g transform="translate(17.617547, 5.566655)"><g><path d="M 0.390625 0 L 1.03125 -4.0625 L 3.296875 -4.0625 C 3.660156 -4.0625 3.960938 -4.007812 4.203125 -3.90625 C 4.441406 -3.8125 4.609375 -3.664062 4.703125 -3.46875 C 4.804688 -3.28125 4.828125 -3.039062 4.765625 -2.75 C 4.710938 -2.507812 4.609375 -2.3125 4.453125 -2.15625 C 4.304688 -2 4.109375 -1.875 3.859375 -1.78125 C 3.617188 -1.695312 3.335938 -1.648438 3.015625 -1.640625 L 3.078125 -1.6875 L 3.296875 -1.6875 C 3.441406 -1.675781 3.570312 -1.640625 3.6875 -1.578125 C 3.800781 -1.515625 3.898438 -1.410156 3.984375 -1.265625 L 4.671875 0 L 3.671875 0 L 3.015625 -1.25 C 2.972656 -1.320312 2.925781 -1.378906 2.875 -1.421875 C 2.820312 -1.472656 2.75 -1.507812 2.65625 -1.53125 C 2.570312 -1.550781 2.460938 -1.5625 2.328125 -1.5625 L 1.5 -1.5625 L 1.25 0 Z M 1.578125 -2.171875 L 2.875 -2.171875 C 3.195312 -2.171875 3.441406 -2.222656 3.609375 -2.328125 C 3.773438 -2.429688 3.878906 -2.585938 3.921875 -2.796875 C 3.960938 -3.003906 3.914062 -3.15625 3.78125 -3.25 C 3.65625 -3.351562 3.429688 -3.40625 3.109375 -3.40625 L 1.78125 -3.40625 Z M 1.578125 -2.171875 "/></g></g></g><g fill="#f90000" fill-opacity="1"><g transform="translate(22.659767, 5.566655)"><g><path d="M 0.390625 0 L 1.03125 -4.0625 L 4.40625 -4.0625 L 4.296875 -3.40625 L 1.75 -3.40625 L 1.59375 -2.390625 L 3.9375 -2.390625 L 3.84375 -1.734375 L 1.484375 -1.734375 L 1.3125 -0.65625 L 3.859375 -0.65625 L 3.75 0 Z M 0.390625 0 "/></g></g></g><g fill="#f90000" fill-opacity="1"><g transform="translate(27.056582, 5.566655)"><g><path d="M 1.9375 0 L 0.359375 -4.0625 L 1.296875 -4.0625 L 2.5 -0.796875 L 2.328125 -0.796875 L 4.59375 -4.0625 L 5.5625 -4.0625 L 2.6875 0 Z M 1.9375 0 "/></g></g></g><g fill="#f90000" fill-opacity="1"><g transform="translate(32.133381, 5.566655)"><g><path d="M -0.15625 0 L 2.75 -4.0625 L 3.5 -4.0625 L 5.109375 0 L 4.265625 0 L 3.828125 -1.15625 L 4.171875 -0.875 L 1.09375 -0.875 L 1.5625 -1.15625 L 0.75 0 Z M 3.015625 -3.28125 L 1.671875 -1.328125 L 1.484375 -1.53125 L 3.984375 -1.53125 L 3.765625 -1.34375 L 3.046875 -3.28125 Z M 3.015625 -3.28125 "/></g></g></g><g fill="#f90000" fill-opacity="1"><g transform="translate(37.538645, 5.566655)"><g><path d="M 0.390625 0 L 1.046875 -4.0625 L 1.84375 -4.0625 L 3.28125 -1.34375 L 3.125 -1.34375 L 5.40625 -4.0625 L 6.203125 -4.0625 L 5.546875 0 L 4.765625 0 L 5.234375 -2.96875 L 5.375 -2.96875 L 3.34375 -0.640625 L 2.875 -0.640625 L 1.609375 -2.984375 L 1.65625 -2.984375 L 1.1875 0 Z M 0.390625 0 "/></g></g></g><g fill="#f90000" fill-opacity="1"><g transform="translate(43.95235, 5.566655)"><g><path d="M 0.390625 0 L 1.03125 -4.0625 L 3.3125 -4.0625 C 3.6875 -4.0625 3.988281 -4.007812 4.21875 -3.90625 C 4.457031 -3.800781 4.617188 -3.644531 4.703125 -3.4375 C 4.796875 -3.226562 4.8125 -2.972656 4.75 -2.671875 C 4.6875 -2.390625 4.578125 -2.160156 4.421875 -1.984375 C 4.265625 -1.804688 4.054688 -1.675781 3.796875 -1.59375 C 3.535156 -1.519531 3.234375 -1.484375 2.890625 -1.484375 L 1.46875 -1.484375 L 1.234375 0 Z M 1.578125 -2.125 L 2.859375 -2.125 C 3.179688 -2.125 3.425781 -2.171875 3.59375 -2.265625 C 3.757812 -2.367188 3.867188 -2.53125 3.921875 -2.75 C 3.972656 -2.976562 3.929688 -3.144531 3.796875 -3.25 C 3.671875 -3.351562 3.441406 -3.40625 3.109375 -3.40625 L 1.78125 -3.40625 Z M 1.578125 -2.125 "/></g></g></g></g></g><g transform="matrix(1, 0, 0, 1, 23, 26)"><g clip-path="url(#14f1811edf)"><g clip-path="url(#2e57bf4e01)"><g fill="#e5e7e9" fill-opacity="1"><g transform="translate(0.483032, 2.346438)"><g><path d="M 0.859375 -0.3125 L 0.4375 -0.3125 L 0.359375 0 L 0.015625 0 L 0.5 -1.546875 L 0.796875 -1.546875 L 1.28125 0 L 0.9375 0 Z M 0.5 -0.578125 L 0.796875 -0.578125 L 0.640625 -1.125 Z M 0.5 -0.578125 "/></g></g></g></g><g clip-path="url(#4c11118836)"><g fill="#e5e7e9" fill-opacity="1"><g transform="translate(2.626231, 2.346438)"><g><path d="M 1.125 -1.546875 L 1.125 -0.46875 C 1.125 -0.3125 1.078125 -0.191406 0.984375 -0.109375 C 0.898438 -0.0234375 0.78125 0.015625 0.625 0.015625 C 0.457031 0.015625 0.328125 -0.0234375 0.234375 -0.109375 C 0.148438 -0.191406 0.109375 -0.316406 0.109375 -0.484375 L 0.109375 -1.546875 L 0.421875 -1.546875 L 0.421875 -0.484375 C 0.421875 -0.390625 0.4375 -0.320312 0.46875 -0.28125 C 0.5 -0.25 0.550781 -0.234375 0.625 -0.234375 C 0.695312 -0.234375 0.742188 -0.25 0.765625 -0.28125 C 0.796875 -0.320312 0.8125 -0.382812 0.8125 -0.46875 L 0.8125 -1.546875 Z M 1.125 -1.546875 "/></g></g></g></g><g clip-path="url(#c98c29bd3d)"><g fill="#e5e7e9" fill-opacity="1"><g transform="translate(4.713246, 2.346438)"><g><path d="M 1.125 -1.28125 L 0.75 -1.28125 L 0.75 0 L 0.421875 0 L 0.421875 -1.28125 L 0.046875 -1.28125 L 0.046875 -1.546875 L 1.125 -1.546875 Z M 1.125 -1.28125 "/></g></g></g></g><g clip-path="url(#59306f7634)"><g fill="#e5e7e9" fill-opacity="1"><g transform="translate(6.738775, 2.346438)"><g><path d="M 1.21875 -0.640625 C 1.21875 -0.429688 1.164062 -0.269531 1.0625 -0.15625 C 0.96875 -0.0390625 0.832031 0.015625 0.65625 0.015625 C 0.476562 0.015625 0.335938 -0.0351562 0.234375 -0.140625 C 0.140625 -0.253906 0.09375 -0.414062 0.09375 -0.625 L 0.09375 -0.890625 C 0.09375 -1.097656 0.140625 -1.257812 0.234375 -1.375 C 0.335938 -1.5 0.476562 -1.5625 0.65625 -1.5625 C 0.820312 -1.5625 0.953125 -1.503906 1.046875 -1.390625 C 1.148438 -1.273438 1.207031 -1.109375 1.21875 -0.890625 Z M 0.890625 -0.890625 C 0.890625 -1.023438 0.867188 -1.125 0.828125 -1.1875 C 0.796875 -1.257812 0.738281 -1.296875 0.65625 -1.296875 C 0.570312 -1.296875 0.507812 -1.265625 0.46875 -1.203125 C 0.425781 -1.140625 0.40625 -1.039062 0.40625 -0.90625 L 0.40625 -0.640625 C 0.40625 -0.503906 0.425781 -0.398438 0.46875 -0.328125 C 0.507812 -0.265625 0.570312 -0.234375 0.65625 -0.234375 C 0.738281 -0.234375 0.796875 -0.265625 0.828125 -0.328125 C 0.867188 -0.390625 0.890625 -0.488281 0.890625 -0.625 Z M 0.890625 -0.890625 "/></g></g></g></g><g clip-path="url(#1dbf5f7ae5)"><g fill="#e5e7e9" fill-opacity="1"><g transform="translate(8.895755, 2.346438)"><g><path d="M 0.78125 -0.40625 C 0.78125 -0.46875 0.765625 -0.515625 0.734375 -0.546875 C 0.703125 -0.578125 0.640625 -0.609375 0.546875 -0.640625 C 0.390625 -0.703125 0.273438 -0.769531 0.203125 -0.84375 C 0.140625 -0.925781 0.109375 -1.023438 0.109375 -1.140625 C 0.109375 -1.265625 0.15625 -1.363281 0.25 -1.4375 C 0.34375 -1.519531 0.460938 -1.5625 0.609375 -1.5625 C 0.703125 -1.5625 0.785156 -1.539062 0.859375 -1.5 C 0.929688 -1.46875 0.988281 -1.414062 1.03125 -1.34375 C 1.070312 -1.269531 1.09375 -1.1875 1.09375 -1.09375 L 0.78125 -1.09375 C 0.78125 -1.164062 0.765625 -1.21875 0.734375 -1.25 C 0.703125 -1.289062 0.65625 -1.3125 0.59375 -1.3125 C 0.539062 -1.3125 0.5 -1.296875 0.46875 -1.265625 C 0.4375 -1.234375 0.421875 -1.1875 0.421875 -1.125 C 0.421875 -1.082031 0.4375 -1.046875 0.46875 -1.015625 C 0.507812 -0.984375 0.570312 -0.945312 0.65625 -0.90625 C 0.8125 -0.851562 0.921875 -0.785156 0.984375 -0.703125 C 1.054688 -0.628906 1.09375 -0.53125 1.09375 -0.40625 C 1.09375 -0.269531 1.046875 -0.164062 0.953125 -0.09375 C 0.867188 -0.0195312 0.753906 0.015625 0.609375 0.015625 C 0.515625 0.015625 0.425781 -0.00390625 0.34375 -0.046875 C 0.257812 -0.0859375 0.191406 -0.144531 0.140625 -0.21875 C 0.0976562 -0.289062 0.078125 -0.378906 0.078125 -0.484375 L 0.390625 -0.484375 C 0.390625 -0.398438 0.40625 -0.335938 0.4375 -0.296875 C 0.476562 -0.253906 0.535156 -0.234375 0.609375 -0.234375 C 0.722656 -0.234375 0.78125 -0.289062 0.78125 -0.40625 Z M 0.78125 -0.40625 "/></g></g></g></g><g clip-path="url(#46199b7c63)"><g fill="#e5e7e9" fill-opacity="1"><g transform="translate(10.914924, 2.346438)"><g><path d="M 0.4375 -0.546875 L 0.4375 0 L 0.125 0 L 0.125 -1.546875 L 0.65625 -1.546875 C 0.800781 -1.546875 0.921875 -1.5 1.015625 -1.40625 C 1.109375 -1.3125 1.15625 -1.1875 1.15625 -1.03125 C 1.15625 -0.882812 1.109375 -0.765625 1.015625 -0.671875 C 0.921875 -0.585938 0.796875 -0.546875 0.640625 -0.546875 Z M 0.4375 -0.796875 L 0.65625 -0.796875 C 0.707031 -0.796875 0.75 -0.816406 0.78125 -0.859375 C 0.820312 -0.898438 0.84375 -0.957031 0.84375 -1.03125 C 0.84375 -1.101562 0.820312 -1.160156 0.78125 -1.203125 C 0.75 -1.253906 0.707031 -1.28125 0.65625 -1.28125 L 0.4375 -1.28125 Z M 0.4375 -0.796875 "/></g></g></g></g><g clip-path="url(#3e15be7b4f)"><g fill="#e5e7e9" fill-opacity="1"><g transform="translate(12.996638, 2.346438)"><g><path d="M 0.859375 -0.3125 L 0.4375 -0.3125 L 0.359375 0 L 0.015625 0 L 0.5 -1.546875 L 0.796875 -1.546875 L 1.28125 0 L 0.9375 0 Z M 0.5 -0.578125 L 0.796875 -0.578125 L 0.640625 -1.125 Z M 0.5 -0.578125 "/></g></g></g></g><g clip-path="url(#3fb75964d6)"><g fill="#e5e7e9" fill-opacity="1"><g transform="translate(15.139837, 2.346438)"><g/></g></g></g><g clip-path="url(#dd4fe46e14)"><g fill="#e5e7e9" fill-opacity="1"><g transform="translate(16.48691, 2.346438)"><g><path d="M 0.078125 -0.421875 C 0.078125 -0.492188 0.09375 -0.554688 0.125 -0.609375 C 0.15625 -0.671875 0.21875 -0.738281 0.3125 -0.8125 C 0.269531 -0.875 0.238281 -0.929688 0.21875 -0.984375 C 0.195312 -1.035156 0.1875 -1.09375 0.1875 -1.15625 C 0.1875 -1.28125 0.21875 -1.378906 0.28125 -1.453125 C 0.351562 -1.523438 0.441406 -1.5625 0.546875 -1.5625 C 0.648438 -1.5625 0.734375 -1.523438 0.796875 -1.453125 C 0.867188 -1.390625 0.90625 -1.304688 0.90625 -1.203125 C 0.90625 -1.066406 0.847656 -0.957031 0.734375 -0.875 L 0.65625 -0.796875 L 0.84375 -0.515625 C 0.875 -0.585938 0.890625 -0.671875 0.890625 -0.765625 L 1.140625 -0.765625 C 1.140625 -0.554688 1.097656 -0.394531 1.015625 -0.28125 L 1.21875 0 L 0.875 0 L 0.828125 -0.078125 C 0.734375 -0.015625 0.625 0.015625 0.5 0.015625 C 0.375 0.015625 0.269531 -0.0195312 0.1875 -0.09375 C 0.113281 -0.175781 0.078125 -0.285156 0.078125 -0.421875 Z M 0.515625 -0.234375 C 0.578125 -0.234375 0.632812 -0.25 0.6875 -0.28125 L 0.4375 -0.625 C 0.394531 -0.570312 0.375 -0.507812 0.375 -0.4375 C 0.375 -0.375 0.390625 -0.320312 0.421875 -0.28125 C 0.453125 -0.25 0.484375 -0.234375 0.515625 -0.234375 Z M 0.453125 -1.15625 C 0.453125 -1.113281 0.476562 -1.054688 0.53125 -0.984375 L 0.578125 -1.015625 C 0.609375 -1.035156 0.628906 -1.054688 0.640625 -1.078125 C 0.648438 -1.109375 0.65625 -1.144531 0.65625 -1.1875 C 0.65625 -1.21875 0.644531 -1.242188 0.625 -1.265625 C 0.601562 -1.296875 0.578125 -1.3125 0.546875 -1.3125 C 0.515625 -1.3125 0.488281 -1.296875 0.46875 -1.265625 C 0.457031 -1.242188 0.453125 -1.207031 0.453125 -1.15625 Z M 0.453125 -1.15625 "/></g></g></g></g><g clip-path="url(#87d3321fb2)"><g fill="#e5e7e9" fill-opacity="1"><g transform="translate(18.590886, 2.346438)"><g/></g></g></g><g clip-path="url(#2992350993)"><g fill="#e5e7e9" fill-opacity="1"><g transform="translate(19.937959, 2.346438)"><g><path d="M 0.59375 -0.5625 L 0.4375 -0.5625 L 0.4375 0 L 0.125 0 L 0.125 -1.546875 L 0.625 -1.546875 C 0.78125 -1.546875 0.898438 -1.503906 0.984375 -1.421875 C 1.066406 -1.335938 1.109375 -1.222656 1.109375 -1.078125 C 1.109375 -0.867188 1.035156 -0.722656 0.890625 -0.640625 L 1.15625 -0.015625 L 1.15625 0 L 0.828125 0 Z M 0.4375 -0.828125 L 0.609375 -0.828125 C 0.671875 -0.828125 0.71875 -0.847656 0.75 -0.890625 C 0.78125 -0.929688 0.796875 -0.984375 0.796875 -1.046875 C 0.796875 -1.203125 0.738281 -1.28125 0.625 -1.28125 L 0.4375 -1.28125 Z M 0.4375 -0.828125 "/></g></g></g></g><g clip-path="url(#6f9557b068)"><g fill="#e5e7e9" fill-opacity="1"><g transform="translate(21.986811, 2.346438)"><g><path d="M 0.921875 -0.671875 L 0.4375 -0.671875 L 0.4375 -0.265625 L 1.015625 -0.265625 L 1.015625 0 L 0.125 0 L 0.125 -1.546875 L 1.015625 -1.546875 L 1.015625 -1.28125 L 0.4375 -1.28125 L 0.4375 -0.921875 L 0.921875 -0.921875 Z M 0.921875 -0.671875 "/></g></g></g></g><g clip-path="url(#d413d4da53)"><g fill="#e5e7e9" fill-opacity="1"><g transform="translate(23.898911, 2.346438)"><g><path d="M 0.625 -1.546875 L 0.9375 -1.546875 L 0.9375 -0.46875 C 0.9375 -0.320312 0.894531 -0.203125 0.8125 -0.109375 C 0.726562 -0.0234375 0.625 0.015625 0.5 0.015625 C 0.351562 0.015625 0.238281 -0.0234375 0.15625 -0.109375 C 0.0820312 -0.191406 0.046875 -0.304688 0.046875 -0.453125 L 0.359375 -0.453125 C 0.359375 -0.304688 0.40625 -0.234375 0.5 -0.234375 C 0.582031 -0.234375 0.625 -0.316406 0.625 -0.484375 Z M 0.625 -1.546875 "/></g></g></g></g><g clip-path="url(#cf32ef1b20)"><g fill="#e5e7e9" fill-opacity="1"><g transform="translate(25.809951, 2.346438)"><g><path d="M 0.453125 0 L 0.140625 0 L 0.140625 -1.546875 L 0.453125 -1.546875 Z M 0.453125 0 "/></g></g></g></g><g clip-path="url(#e7f4e82ebb)"><g fill="#e5e7e9" fill-opacity="1"><g transform="translate(27.243951, 2.346438)"><g><path d="M 1.171875 -0.171875 C 1.109375 -0.109375 1.035156 -0.0625 0.953125 -0.03125 C 0.867188 0 0.773438 0.015625 0.671875 0.015625 C 0.492188 0.015625 0.351562 -0.0351562 0.25 -0.140625 C 0.15625 -0.253906 0.101562 -0.414062 0.09375 -0.625 L 0.09375 -0.90625 C 0.09375 -1.113281 0.140625 -1.273438 0.234375 -1.390625 C 0.328125 -1.503906 0.460938 -1.5625 0.640625 -1.5625 C 0.804688 -1.5625 0.929688 -1.519531 1.015625 -1.4375 C 1.109375 -1.351562 1.160156 -1.222656 1.171875 -1.046875 L 0.875 -1.046875 C 0.863281 -1.148438 0.84375 -1.21875 0.8125 -1.25 C 0.78125 -1.289062 0.726562 -1.3125 0.65625 -1.3125 C 0.570312 -1.3125 0.507812 -1.28125 0.46875 -1.21875 C 0.4375 -1.15625 0.414062 -1.054688 0.40625 -0.921875 L 0.40625 -0.640625 C 0.40625 -0.492188 0.425781 -0.390625 0.46875 -0.328125 C 0.519531 -0.265625 0.59375 -0.234375 0.6875 -0.234375 C 0.75 -0.234375 0.796875 -0.25 0.828125 -0.28125 L 0.859375 -0.296875 L 0.859375 -0.578125 L 0.640625 -0.578125 L 0.640625 -0.8125 L 1.171875 -0.8125 Z M 1.171875 -0.171875 "/></g></g></g></g></g></g></svg>